<svg xmlns="http://www.w3.org/2000/svg" viewBox="0 0 641.25 105.83"><title>cts-brand</title><rect width="641.25" height="103.14" rx="4.48" ry="4.48" fill="#fff"/><rect x="2.24" y="4.93" width="636.77" height="98.65" rx="2.24" ry="2.24" fill="#fff"/><path d="M636.77,7.17h0v94.17H4.48V7.17H636.77m0-4.48H4.48A4.49,4.49,0,0,0,0,7.17v94.17a4.49,4.49,0,0,0,4.48,4.49H636.77a4.49,4.49,0,0,0,4.48-4.49V7.17a4.49,4.49,0,0,0-4.48-4.48Z" fill="#666"/><path d="M57.41,42.91V41.23c-.08-.3.23-.53.08-.84s0-.53.07-.84a1,1,0,0,0-.07-.45,19.9,19.9,0,0,0-.38-2.21c-.08-.16,0-.39-.08-.54l-.31-.46c-.22-.3-.45-.68-.68-1a2.3,2.3,0,0,1-.76-.76A.64.64,0,0,0,55,34a1.82,1.82,0,0,0-.61-.08l-.84-.23c-.23,0-.46.08-.68.08a5.57,5.57,0,0,1-1.15.08,8.22,8.22,0,0,1-1,.83,5.15,5.15,0,0,0-1,1.22c-.08.54-.53,1-.53,1.61a1.19,1.19,0,0,1-.38.83,1.8,1.8,0,0,1,.23.84c-.08,1.53,0,3-.16,4.58a2.92,2.92,0,0,1,0,1.44.15.15,0,0,0,0,.23,9.11,9.11,0,0,1,.08,2.9v3.74a10.68,10.68,0,0,0,0,1.6c0,.45.08.91.08,1.37C49,56.48,49,57.85,49,59.3v4.19c0,1.22,0,2.36.08,3.51s0,2.44-.08,3.66a5.22,5.22,0,0,0,.61,2.66c.07.23.23.39.3.61a1.21,1.21,0,0,0,.38.61c.92,1,.92.84,2.14,1.3a3.75,3.75,0,0,0,1.6,0l.46-.15h.15a4.87,4.87,0,0,0,1.07-.61c.23-.08.38-.31.61-.54.07-.38.45-.53.53-.91a2.94,2.94,0,0,1,.38-.84.66.66,0,0,0,.08-.38V72c.07-.23.38-.38.3-.61a2.14,2.14,0,0,0-.15-.69V69.51c0-.23.15-.3.38-.38s.08-.15.08-.23c-.16,0-.31-.07-.31-.23s-.07-.15-.07-.22c0-.84-.08-1.68,0-2.52a1.38,1.38,0,0,1,1.06-1.3,7.44,7.44,0,0,1,2.21,0,.45.45,0,0,1,.31.08l.69.53a.68.68,0,0,1,.22.39l.08.76v3.12c0,.84-.08,1.68-.08,2.52a1.08,1.08,0,0,1-.15.46c-.23.3,0,.61-.23.91s-.07.53-.15.84c0,.08-.07.15-.07.23A2.09,2.09,0,0,1,60.61,76a.51.51,0,0,1-.07.31,2.83,2.83,0,0,1-.61,1.14L58.55,79a.61.61,0,0,1-.61.15c0-.08-.07-.08-.07-.15l-.16.07c.08,0,.08.08.16.08h.07a.62.62,0,0,1-.07.38,8,8,0,0,1-1.83.91.74.74,0,0,1-.69-.07v-.08l-.38.15c0,.08-.08.23-.15.23-.38,0-.84.23-1.22.16H51.85a1.22,1.22,0,0,1-.77-.16c-.15-.07-.3-.15-.45-.07a1.06,1.06,0,0,1-.84-.16,14.73,14.73,0,0,1-1.68-.76c-.15-.15-.38-.23-.53-.38-.46-.38-.84-.76-1.22-1.14a1.71,1.71,0,0,1-.38-.46,10.31,10.31,0,0,1-1.68-3.89A11.24,11.24,0,0,1,43.92,72a3.55,3.55,0,0,1,0-1.3,2.42,2.42,0,0,1,0-.76c.15-.23-.08-.46-.08-.69s0-.45.31-.61c.15,0,.15-.07,0-.15a.34.34,0,0,1-.23-.38c.07-1.68-.16-3.35,0-5V61.05c-.08-.3.07-.53.07-.84a2.25,2.25,0,0,1-.07-.68v-.84a4.1,4.1,0,0,1,0-1c.07-.08,0-.23,0-.38a5.53,5.53,0,0,1,0-1.15c.07-.38-.08-.76,0-1.06.07-.46-.08-.84.07-1.22a3.62,3.62,0,0,1-.07-.39c0-.91-.08-1.83-.08-2.74,0-.23.15-.46.15-.69s-.07-.45-.07-.76a26.49,26.49,0,0,1,.07-5c0-.23-.15-.54-.15-.84a2,2,0,0,0,.08-.69,2.3,2.3,0,0,1,.07-1c0-.08.16-.15.23-.15a1.09,1.09,0,0,1-.38-.84c0-1.07,0-2.14.08-3.2,0-.15.07-.38.07-.61a.83.83,0,0,1,.46-.54.07.07,0,0,1-.07-.07c-.08,0-.23-.08-.16-.23A8.34,8.34,0,0,1,45,33.91a14,14,0,0,1,1-1.83c.3-.45.61-.76.91-1.14a.81.81,0,0,1,.61-.31A1.06,1.06,0,0,1,48,30.1,8.72,8.72,0,0,1,51.31,29a.8.8,0,0,1,.38-.08c1,0,2,.08,3.05.08a2.14,2.14,0,0,1,.69.15,1.49,1.49,0,0,0,.76.23,1.64,1.64,0,0,1,.92.38,1.15,1.15,0,0,0,.53.3,1.6,1.6,0,0,1,.61.39c.53.76,1.45,1.22,1.9,2.13a16.59,16.59,0,0,1,1.23,2.59l.22.84c.08.08.08.23.16.31l.22,1.6v.3c.08,1,.08,2.06.08,3v1.68c0,.3-.08.53-.08.84a.9.9,0,0,1-.38.84c-.3.22-.68.53-1.06.45a16.66,16.66,0,0,1-2-.15h-.22a1,1,0,0,1-.69-.53A4.88,4.88,0,0,1,57.41,42.91Z" fill="#4d4d4d"/><path d="M97.58,74.54a6.52,6.52,0,0,1-.07,1.22c-.08,0-.08.16,0,.23a14.13,14.13,0,0,1,0,2.52.68.68,0,0,1-.76.76c-.16.46-.54.46-.92.46H93.92c-.07,0-.07-.08-.15-.15a1.61,1.61,0,0,1-.61-.08,1,1,0,0,1-.53-.46l-.23-.46a1.23,1.23,0,0,1-.08-.53,1,1,0,0,0,.16-.46c-.16-.45.07-1-.08-1.44a1,1,0,0,1,0-.69.45.45,0,0,0,.08-.31.78.78,0,0,1,0-.83.78.78,0,0,0-.08-.69,2.42,2.42,0,0,1,0-1.07c0-.07.15-.15.23-.15s.23-.08.08-.23a1.08,1.08,0,0,1-.31-.3.23.23,0,0,1,0-.31l.31-.23c-.23-.23-.46-.45-.31-.84a4.74,4.74,0,0,0,.08-1.06.51.51,0,0,1,.3-.38v-.23c-.15-.08-.23-.23-.38-.31s-.08-.15-.08-.23a31,31,0,0,1,.16-3.73V64.1a.56.56,0,0,1,0-.69.07.07,0,0,0,.07-.07,2.79,2.79,0,0,1-.15-1.75,14,14,0,0,1,0-1.83,3.54,3.54,0,0,1,0-.92,5.86,5.86,0,0,0-.08-1.22c.08-.15,0-.3-.07-.46l-.46-.61c-.08-.15-.15-.15-.23-.15a5.74,5.74,0,0,1-1.6.08H88.28a1.64,1.64,0,0,1-1.06-.16H87a6,6,0,0,1-2.06.08.87.87,0,0,0-.61.23,1.46,1.46,0,0,0-.53.46,1.16,1.16,0,0,0-.23.68,16,16,0,0,1,0,1.83c-.08.54.07,1.15,0,1.68v1.3a6.12,6.12,0,0,1,0,1.6v1.06a10.93,10.93,0,0,1,0,2.14c0,.68.07,1.37.07,2.06,0,.3-.07.38-.3.45v.46c.15.23.23.31.23.54,0,.61.07,1.29.07,1.9s-.07,1.22-.07,1.83a12.39,12.39,0,0,1-.08,1.68,3,3,0,0,0-.08.38c.08.08.23.23.23.38a9.59,9.59,0,0,0-.07,1.45,1.36,1.36,0,0,1-.84,1.07,2.44,2.44,0,0,1-.69.15,20.22,20.22,0,0,1-2.06,0,2,2,0,0,1-1.22-.54,1.41,1.41,0,0,1-.22-.38,2.07,2.07,0,0,1,0-1,2.89,2.89,0,0,0,0-1.37c0-.91-.08-1.75-.08-2.67s0-1.75.15-2.67l-.07-.3c0-.23-.08-.46-.08-.61.08-1.53-.08-3,.08-4.57a4.17,4.17,0,0,1,0-1,5.18,5.18,0,0,0-.08-1,3.47,3.47,0,0,0,0-.91,20.38,20.38,0,0,1,.15-2.06,5.11,5.11,0,0,0-.07-1,3.58,3.58,0,0,1-.08-.92c.08-.91.08-1.9.08-2.82.07-.76,0-1.52,0-2.28a3.49,3.49,0,0,1,.07-1.53V51.9a10.93,10.93,0,0,1-.07-2.74c0-.15.22-.23.15-.46a.37.37,0,0,1-.15-.3c-.08-.08,0-.23-.08-.38-.08-.31.15-.61.15-.92s-.07-.53-.07-.84c0-.15.07-.3.07-.46s.08-.3,0-.45a1.74,1.74,0,0,1-.07-1.07,10.22,10.22,0,0,1,.07-2.21,5.14,5.14,0,0,1,0-2.14v-.22a10.55,10.55,0,0,1-.07-3.13c-.16-.46.07-.91.07-1.37a.87.87,0,0,0-.07-.61c-.08-.23.22-.46.07-.76a2.32,2.32,0,0,1-.07-.69V30a.66.66,0,0,1,.3-.53c0-.08.08,0,.15,0v-.08c-.07-.22.08-.3.31-.45a.72.72,0,0,1,.23-.08A9.19,9.19,0,0,1,81,29h.69c.92-.23,1.37.38,1.83,1a.51.51,0,0,1,.08.46,10.33,10.33,0,0,0,0,1.67,13.41,13.41,0,0,0,.07,1.68v6.63c0,.31-.07.54-.07.84v.84c.07.61,0,1.22.07,1.83s-.07,1.22-.07,1.75a20.69,20.69,0,0,1,0,3.05,2.28,2.28,0,0,1,0,.69,2,2,0,0,0,.3,1.14.16.16,0,0,0,.15.15,3.58,3.58,0,0,0,1.53.46,1,1,0,0,0,.46-.08,4.27,4.27,0,0,1,1.67,0c.08,0,.16.08.23.08a2.49,2.49,0,0,1,1.3,0A7.49,7.49,0,0,1,91,51.06a2.56,2.56,0,0,0,.76-.15l.08.08v-.08c-.08-.15.15-.23.22-.38a2.28,2.28,0,0,0,.31-1.37c0-.23.23-.46.08-.69s0-.53-.08-.84a2,2,0,0,0-.08-.68V46.8A13,13,0,0,0,92.4,45a14,14,0,0,1,0-1.83,1.94,1.94,0,0,0,0-.68c-.08-.69,0-1.45-.08-2.14a1.61,1.61,0,0,1,.08-.61,16.34,16.34,0,0,0,0-2,14,14,0,0,0,0-1.83,11.89,11.89,0,0,0-.08-1.68c0-.45.08-.91.08-1.29a4,4,0,0,1,.08-1.37l-.08-.54v-.76A1.66,1.66,0,0,1,93.24,29h.23a19.65,19.65,0,0,1,3,.07,1.56,1.56,0,0,1,.69.38h.07v.08l.08.08c.08.07.08.23.15.38.08.91.15,1.75.15,2.67a8.86,8.86,0,0,1-.15,2.05v.23a16.28,16.28,0,0,1,.08,3.36c0,.68.07,1.37.07,2.06a1.29,1.29,0,0,1-.15.91c0,.15.08.23.08.38s.07.15.07.23c-.22.92.16,1.83-.07,2.75-.08.22.07.45,0,.76V47.1c0,.61.07,1.14.07,1.68s-.07.84-.07,1.22a6.74,6.74,0,0,0,.07,1.22,1.71,1.71,0,0,1-.15.61c0,.07-.07.23,0,.3a1.16,1.16,0,0,1,.15.69c-.07,1.52,0,3,0,4.5,0,.22.08.53-.22.76,0,.23.15.46.15.68a1.27,1.27,0,0,0,0,.77A2.43,2.43,0,0,1,97.43,61l.08.53a.44.44,0,0,1-.08.46V62a3.58,3.58,0,0,1,.08.92A4.73,4.73,0,0,0,97.58,64a2,2,0,0,0,0,.92,4.72,4.72,0,0,1-.07,1,3.37,3.37,0,0,1,0,.84c-.08.23.07.46,0,.68a2,2,0,0,0,0,.69.3.3,0,0,1,.07.23,7.14,7.14,0,0,0-.07,1.22c0,.3.07.69.07,1.07s-.3.76-.07,1.14a6.22,6.22,0,0,0,0,1.22A5.18,5.18,0,0,1,97.58,74.54ZM81.88,79h-.23a.34.34,0,0,0,.08.23C81.8,79.19,81.88,79.12,81.88,79Zm1.45-2.82v.08h.07Zm9.45-26-.07.07s0,.08.07.08Zm1.14,28.89h-.07c-.08.07-.08.23-.08.38C93.92,79.42,93.92,79.27,93.92,79.12ZM97.2,34.07c0,.07.08.07.08-.08A.08.08,0,0,0,97.2,34.07Zm.08,4.11-.08.08h.08ZM97.2,78.51a.08.08,0,0,0,.08-.08c0-.07,0-.07-.08-.07Z" fill="#4d4d4d"/><path d="M132.27,65.55c0,.08.08.23,0,.3a7.64,7.64,0,0,0,0,2.29v1.68c0,.46-.08.84-.08,1.22a22.35,22.35,0,0,1-.53,2.44,2.56,2.56,0,0,1-.38,1.14,7.24,7.24,0,0,1-1.15,2.14.68.68,0,0,1-.76.6c-.07,0-.07.08-.15.08a.08.08,0,0,1-.08.08.29.29,0,0,0-.07.23c0,.3-.31.53-.38.83a.22.22,0,0,1-.08-.15c-.08,0-.08,0-.08.08a.27.27,0,0,1,.16.07h-.39a3.4,3.4,0,0,1-.3.23,2.37,2.37,0,0,1-.84.61,2.14,2.14,0,0,1-1,.38c-.08,0-.15.08-.23.08s-.3.08-.46.08h-.91a.17.17,0,0,1-.15.15,5.67,5.67,0,0,1-1.15.15.73.73,0,0,1-.68-.3h-.54a.68.68,0,0,1-.76.15c-.3-.15-.61.08-.91-.08l-.69-.45c-.23-.08-.46,0-.61-.08a8.66,8.66,0,0,1-1.14-.69,9.27,9.27,0,0,1-1-.83c-.39-.39-.61-.84-1-1.22a.41.41,0,0,1-.16-.31l-.68-1.22a8.42,8.42,0,0,1-.46-1.3,8.46,8.46,0,0,1-.38-1.37,5.74,5.74,0,0,0-.23-1.06.8.8,0,0,1,0-.61,1,1,0,0,0,.08-.46c-.16-.54.07-1-.08-1.53a10.68,10.68,0,0,1,0-1.6.64.64,0,0,1,.15-.53v-.23a1.29,1.29,0,0,1-.15-1.07c0-.3.08-.61.08-.91s.07-.31,0-.38a3,3,0,0,1-.16-1.45c.08-1,0-2.06.16-3.13a4,4,0,0,0,0-.91,19.43,19.43,0,0,1-.08-3c-.08-.15,0-.38.08-.61a2.46,2.46,0,0,0-.08-.76v-.84a2.41,2.41,0,0,0,0-1.07c0-.53.15-.69.61-.69v-.3c-.31,0-.46-.15-.53-.53a14.7,14.7,0,0,1-.08-2.67,8,8,0,0,1,.08-2,14.16,14.16,0,0,1-.08-2.52,5.9,5.9,0,0,1,0-1.68,8.4,8.4,0,0,1,.08-1.45c.07-.07,0-.15,0-.22a5.9,5.9,0,0,1,0-2.37.91.91,0,0,0,0-.61,15.08,15.08,0,0,1,0-4.19v-.61a21.81,21.81,0,0,1-.08-2.29,1.25,1.25,0,0,1,.46-1.06A.62.62,0,0,1,115,29c0-.08.16-.08.23-.08.92,0,1.91.08,2.9.08a1,1,0,0,1,.91.76,6.67,6.67,0,0,1,.16,1.68c-.08.61.07,1.29,0,1.9.23.46-.08.92,0,1.45a9.59,9.59,0,0,1,.07,1.45v1.3c0,.45-.07,1-.07,1.44.07,1.07.07,2.14.07,3.13a4.61,4.61,0,0,1-.07,1.45v.38a5.53,5.53,0,0,1,0,1.52,8.3,8.3,0,0,0-.08,2,7.23,7.23,0,0,0,.15,1.75c0,.91,0,1.9-.07,2.9-.08.83,0,1.67,0,2.51a3.36,3.36,0,0,1,0,.84c0,.23-.08.53-.08.84s.08.53.08.84a10.48,10.48,0,0,1,.07,1.52,8.81,8.81,0,0,1-.07,1.45c.07.61-.08,1.3,0,1.91a1.79,1.79,0,0,1,.07.61c0,1-.07,2,0,3-.07.45.16,1-.23,1.52v.3c.08.31.16.54.23.84a4.67,4.67,0,0,1-.07,1,.88.88,0,0,0-.08.77,2.44,2.44,0,0,1,.15,1,5.35,5.35,0,0,0,.46,1.9l.23.46a7.47,7.47,0,0,1,1,1.3l.08.07h.07a1.41,1.41,0,0,1,.69.31,4.37,4.37,0,0,0,2,.23,2.75,2.75,0,0,0,1.3-.46c0-.08.07,0,.15,0l.15-.08a6.81,6.81,0,0,0,1.07-1.45A13.39,13.39,0,0,0,127,71.5c.08-.23.08-.46.15-.69,0-.08.08-.23,0-.31a8.92,8.92,0,0,1-.07-1.37c-.08-1,.07-2,0-3a2.58,2.58,0,0,1,.3-1.68c.08-.07,0-.15-.08-.15a.54.54,0,0,1-.22-.46c-.08-.38.15-.76,0-1.14.07-1.07,0-2.14,0-3.13a9.05,9.05,0,0,1,.07-1.37v-.69a3.92,3.92,0,0,1,0-1.6c.08-.3-.07-.53-.07-.83V53.58c.07-1.45,0-2.82.07-4.27a3.64,3.64,0,0,1,.15-2,.3.3,0,0,0-.07-.23.82.82,0,0,1-.08-.61,1.76,1.76,0,0,0,0-.91,1.53,1.53,0,0,1,.08-1.15.15.15,0,0,0,0-.23,1.29,1.29,0,0,1-.15-.91,2.75,2.75,0,0,0,0-1.07v-2.9a1.51,1.51,0,0,1,.22-.83.37.37,0,0,0-.07-.54.53.53,0,0,1-.15-.3,8.13,8.13,0,0,0,0-1.91c0-.61.07-1.22.07-1.83a5.51,5.51,0,0,1,0-1.9c.08-.16,0-.23,0-.38a6.33,6.33,0,0,1-.07-1.68.8.8,0,0,1,.3-.54,1.69,1.69,0,0,1,1.22-.53A23.26,23.26,0,0,1,131,29a1.2,1.2,0,0,1,1.22.84c0,.15.08.3,0,.45a1.16,1.16,0,0,0,0,.69,1.08,1.08,0,0,1,.08.46,1.1,1.1,0,0,0-.08.83,1,1,0,0,1,.08.46,2.42,2.42,0,0,1,0,.76c0,.46-.15.92-.15,1.45s.15.92.15,1.38v.91a5.16,5.16,0,0,0,0,1.52c-.08,1,.08,2-.08,3,0,.07-.07.23,0,.23a6.19,6.19,0,0,1,0,2.06c-.15.53.16,1.14.08,1.67a15.26,15.26,0,0,1-.08,1.91v.38a3.62,3.62,0,0,1,.08,1.29,8.76,8.76,0,0,0,0,1.45c.08.46-.08,1,0,1.45a1.93,1.93,0,0,1-.15,1.15c-.08.07,0,.22,0,.38a10.19,10.19,0,0,1,.15,2.13.27.27,0,0,0,.08.23c0,.53-.31,1.07-.08,1.6v1.91a10.88,10.88,0,0,1-.08,2.28,4.1,4.1,0,0,0,.08,1v1.07c0,.31-.08.54-.08.84S132.35,65.24,132.27,65.55ZM114.58,57.7l-.07.07h.07Zm3.89,2.74c.08-.15.23-.23.31-.38-.08-.08-.08-.15-.16-.15s-.15,0-.15.07Zm.23,4.42-.08.08h.08Zm9.07-28.51v-.07l-.07.07Zm.15,8.77c-.07,0-.07-.08-.07-.08a.08.08,0,0,0-.08.08c0,.07.08.15.15.07Zm0,18.22s0-.08-.07-.08-.08.15-.08.23.08.08.15.08Zm0-16.85h-.07v.08Zm0,3.58c-.07.08-.07.08,0,.16Z" fill="#4d4d4d"/><path d="M162.3,42.91V41.23c-.07-.3.23-.53.08-.84s0-.53.08-.84a.9.9,0,0,0-.08-.45,19.9,19.9,0,0,0-.38-2.21c-.08-.16,0-.39-.08-.54l-.3-.46c-.23-.3-.46-.68-.69-1a2.4,2.4,0,0,1-.76-.76.64.64,0,0,0-.31-.15,1.76,1.76,0,0,0-.61-.08l-.83-.23c-.23,0-.46.08-.69.08a5.47,5.47,0,0,1-1.14.08,10.14,10.14,0,0,1-1,.83,5.2,5.2,0,0,0-1,1.22c-.07.54-.53,1-.53,1.61a1.19,1.19,0,0,1-.38.83,1.8,1.8,0,0,1,.23.84c-.08,1.53,0,3-.15,4.58a3.18,3.18,0,0,1,0,1.44.14.14,0,0,0,0,.23,9.41,9.41,0,0,1,.07,2.9v3.74a12.2,12.2,0,0,0,0,1.6c0,.45.08.91.08,1.37-.08,1.45-.08,2.82-.08,4.27v4.19c0,1.22,0,2.36.08,3.51s0,2.44-.08,3.66a5.22,5.22,0,0,0,.61,2.66c.08.23.23.39.31.61a1.15,1.15,0,0,0,.38.61c.91,1,.91.84,2.13,1.3a3.75,3.75,0,0,0,1.6,0l.46-.15h.15a4.65,4.65,0,0,0,1.07-.61c.23-.08.38-.31.61-.54.08-.38.46-.53.53-.91a2.71,2.71,0,0,1,.39-.84.74.74,0,0,0,.07-.38V72c.08-.23.38-.38.31-.61a2.16,2.16,0,0,0-.16-.69V69.51c0-.23.16-.3.39-.38.07,0,.07-.15.07-.23s-.3-.07-.3-.23-.08-.15-.08-.22c0-.84-.08-1.68,0-2.52a1.39,1.39,0,0,1,1.07-1.3,7.44,7.44,0,0,1,2.21,0c.07,0,.23,0,.3.08l.69.53a.64.64,0,0,1,.23.39l.07.76v3.12c0,.84-.07,1.68-.07,2.52a1.24,1.24,0,0,1-.15.46c-.23.3,0,.61-.23.91s-.08.53-.16.84c0,.08-.07.15-.07.23a2.12,2.12,0,0,1-.76,1.52.45.45,0,0,1-.08.31,2.61,2.61,0,0,1-.61,1.14L163.45,79a.61.61,0,0,1-.61.15c0-.08-.08-.08-.08-.15l-.15.07c.08,0,.08.08.15.08h.08a.55.55,0,0,1-.08.38,7.82,7.82,0,0,1-1.83.91.72.72,0,0,1-.68-.07v-.08l-.39.15c0,.08-.07.23-.15.23-.38,0-.84.23-1.22.16h-1.75a1.19,1.19,0,0,1-.76-.16c-.16-.07-.31-.15-.46-.07a1.06,1.06,0,0,1-.84-.16,16.49,16.49,0,0,1-1.68-.76c-.15-.15-.38-.23-.53-.38-.46-.38-.84-.76-1.22-1.14a2.2,2.2,0,0,1-.38-.46,10.47,10.47,0,0,1-1.68-3.89,12.53,12.53,0,0,1-.38-1.75,3.55,3.55,0,0,1,0-1.3,2.42,2.42,0,0,1,0-.76c.15-.23-.08-.46-.08-.69s0-.45.31-.61c.15,0,.15-.07,0-.15a.35.35,0,0,1-.23-.38c.08-1.68-.15-3.35,0-5V61.05c-.08-.3.08-.53.08-.84a2,2,0,0,1-.08-.68v-.84a4.1,4.1,0,0,1,0-1c.08-.08,0-.23,0-.38a5.53,5.53,0,0,1,0-1.15c.08-.38-.08-.76,0-1.06.08-.46-.08-.84.08-1.22a3.22,3.22,0,0,1-.08-.39c0-.91-.08-1.83-.08-2.74,0-.23.16-.46.16-.69s-.08-.45-.08-.76a26.51,26.51,0,0,1,.08-5c0-.23-.16-.54-.16-.84a2,2,0,0,0,.08-.69,2.17,2.17,0,0,1,.08-1c0-.08.15-.15.23-.15a1.1,1.1,0,0,1-.39-.84c0-1.07,0-2.14.08-3.2,0-.15.08-.38.08-.61a.82.82,0,0,1,.45-.54.07.07,0,0,1-.07-.07c-.08,0-.23-.08-.15-.23a8,8,0,0,1,.76-2.29,13.94,13.94,0,0,1,1-1.83c.3-.45.61-.76.91-1.14a.83.83,0,0,1,.61-.31,1.06,1.06,0,0,1,.46-.53A8.76,8.76,0,0,1,156.21,29a.78.78,0,0,1,.38-.08c1,0,2,.08,3,.08a2.14,2.14,0,0,1,.68.15,1.52,1.52,0,0,0,.76.23,1.64,1.64,0,0,1,.92.38,1.15,1.15,0,0,0,.53.3,1.6,1.6,0,0,1,.61.39c.54.76,1.45,1.22,1.91,2.13a16.54,16.54,0,0,1,1.22,2.59l.23.84c.07.08.07.23.15.31l.23,1.6v.3c.07,1,.07,2.06.07,3v1.68c0,.3-.07.53-.07.84a.92.92,0,0,1-.38.84c-.31.22-.69.53-1.07.45a16.34,16.34,0,0,1-2-.15h-.23a1,1,0,0,1-.69-.53A4.88,4.88,0,0,1,162.3,42.91Z" fill="#4d4d4d"/><path d="M204.31,78.74c0,.23-.08.38-.08.61s-.3.15-.46.23a2.92,2.92,0,0,1-1.37.15,16,16,0,0,1-1.83,0,2.63,2.63,0,0,1-1.9-1.15l-.23-.53c-.23-1-.69-1.9-.92-2.9a1.63,1.63,0,0,1-.23-1,.51.51,0,0,0-.23-.45c0-.08-.07-.16-.07-.23a4.81,4.81,0,0,0-.46-1.37,4.07,4.07,0,0,0-.3-1.07c-.23-.38-.16-.76-.38-1.07-.08-.61-.54-1.14-.54-1.83-.07-.08-.07-.23-.15-.3a14.84,14.84,0,0,1-.61-1.68c-.08-.08,0-.23,0-.38a1.16,1.16,0,0,1-.38-1,6,6,0,0,0-.38-1.22c-.31-.69-.54-1.45-.77-2.14a8.25,8.25,0,0,0-.45-1.29c-.16-.31-.16-.77-.38-1.15-.23-.84-.54-1.67-.77-2.51-.07-.08-.07-.23-.15-.31S191,56,191,56.1a.16.16,0,0,0-.16.15A9.31,9.31,0,0,0,190,57.7l-.53,1.22a9,9,0,0,0-.84,2.36,2.54,2.54,0,0,0-.15,1.3,1.76,1.76,0,0,1,0,.91c-.08.92,0,1.83,0,2.67a2.94,2.94,0,0,1,0,.84,10.68,10.68,0,0,0,0,1.6c0,.07.08.15,0,.23-.08,1.52.08,3,0,4.57,0,.46-.08.92-.08,1.3a3.13,3.13,0,0,1,0,1.22.55.55,0,0,1-.15.45c0,.16.08.23.08.31a.63.63,0,0,1,.15.38v1.45c-.08.23-.15.38-.23.61a4.83,4.83,0,0,1-.61.46,2.44,2.44,0,0,1-.76.15h-2a1.52,1.52,0,0,1-.61-.15,1.15,1.15,0,0,1-.84-1.38c0-.3.08-.61.08-.84s.22-.22.38-.22a1.09,1.09,0,0,1-.46-.92c0-1-.08-1.9-.08-2.9a10.79,10.79,0,0,1,.08-1.6,7.93,7.93,0,0,0-.08-1.37c0-.46.08-.91.08-1.37s-.08-1-.08-1.45c0-1,0-1.9.08-2.9,0-.3-.08-.61-.08-.91a4.08,4.08,0,0,0,0-1c0-.31.08-.69.08-1,0-.84.08-1.76,0-2.59a7.64,7.64,0,0,1,0-2.29V54.42a8.13,8.13,0,0,1,.08-2.36,5.87,5.87,0,0,1-.16-1.61,4.4,4.4,0,0,1,.23-1.75l-.07-.07c0-.08-.08-.16-.08-.31a1.5,1.5,0,0,1,.08-1.14,3.09,3.09,0,0,1,0-1.68,8.58,8.58,0,0,1-.08-2.44,1.77,1.77,0,0,1,.08-.91,3,3,0,0,0-.16-.84v-.16a5,5,0,0,0,.08-1.52c-.08-.53,0-1.07-.08-1.6a9.25,9.25,0,0,1,.08-1.45,3.67,3.67,0,0,1,.08-1.3c.07-.22-.08-.38-.08-.53s.15-.53.08-.84a2.25,2.25,0,0,1-.08-.76,2.73,2.73,0,0,1-.08-.84c0-.23.08-.46.08-.68v-1.3a1.67,1.67,0,0,1,.23-.92,1,1,0,0,1,.84-.53h.61c.3,0,.68.08,1.06.08a4,4,0,0,0,.92,0,.34.34,0,0,1,.38.07,1.45,1.45,0,0,1,.53.46,1.14,1.14,0,0,1,.46,1.14.28.28,0,0,0-.08.23,17.93,17.93,0,0,1,.08,3.51q.12,2.4,0,4.8c0,1.37.08,2.75,0,4.12a20.69,20.69,0,0,1,0,3.05c.08,1,0,1.9,0,2.89v.23c0,.16,0,.16.23.16a1.61,1.61,0,0,0,.46-.77,1.2,1.2,0,0,1,.38-.68c.07-.15.23-.15.38-.08a.48.48,0,0,1,.07-.3h-.07v-.31l.07.08c-.07-.15-.15-.31-.07-.46a9.4,9.4,0,0,0,1-2,13.57,13.57,0,0,0,.76-1.91c.08-.23.23-.45.38-.76a4.32,4.32,0,0,0,.46-1.07c0-.23.23-.45.31-.68.15-.46.61-.84.53-1.38,0-.07.08-.15.15-.22.46-.84.69-1.76,1.07-2.6a11.71,11.71,0,0,0,.91-2c0-.15.23-.3.31-.45s.08-.39.15-.54a3.13,3.13,0,0,0,.31-.68c0-.16,0-.31.07-.31.46-.38.46-.91.61-1.3a5.66,5.66,0,0,1,.69-1.37,2,2,0,0,1,1.9-.91,4.19,4.19,0,0,1,1.68.07,1.22,1.22,0,0,0,.46-.07,2,2,0,0,0,.68-.08c.54-.08.77.31,1,.53a.31.31,0,0,1,.07.23v.16a5,5,0,0,0-.38.91,4.7,4.7,0,0,1-.3.92c-.46,1.06-1,2.21-1.53,3.35L200,37.42c-.31.76-.69,1.52-1,2.29a2.05,2.05,0,0,1-.69,1.06h-.07a.36.36,0,0,1,.07.46c-.69,1.22-1.14,2.67-1.83,3.89a4.2,4.2,0,0,1-.68,1.29,4.75,4.75,0,0,1-.31.92,7.89,7.89,0,0,0-.61,1.45,3.62,3.62,0,0,0,0,2.67c.23.53.38,1.06.61,1.6a1.71,1.71,0,0,1,.15.61,2.89,2.89,0,0,0,.54,1.52l.15.23a2.28,2.28,0,0,0,.15,1,3.6,3.6,0,0,1,.46.92,4.4,4.4,0,0,0,.38.91,16.55,16.55,0,0,0,.84,2.52c.23.45.15.91.38,1.37l-.15.15c0-.08-.08-.15-.15-.08s-.08,0,0,.08.07.08.15,0a2.26,2.26,0,0,1,.76,1.37c.38,1.22.76,2.44,1.22,3.59a15.47,15.47,0,0,1,.91,2.51.81.81,0,0,1,0,.61.24.24,0,0,0,.08.15c.38.23.38.61.46,1s.23.53.3.83l.46,1.3a6.64,6.64,0,0,1,.46,1.07,15.17,15.17,0,0,0,.61,1.75,13.06,13.06,0,0,1,.53,1.68A1.61,1.61,0,0,1,204.31,78.74ZM183.88,51.29c-.08.08-.08,0-.08,0l-.08.08c.08,0,.08,0,.16.08Zm1,27.83h-.46c.08,0,.15.07.23.07a.1.1,0,0,0,.15,0ZM185,30l-.08-.15V30Zm1.6,49.17a.07.07,0,0,0,.08-.07ZM192,56.4c0-.08,0-.08-.07-.08l-.08.08a.08.08,0,0,1,.08.08Zm.31-3.73s-.08-.08-.08,0l-.07.07h.15ZM194,62.19h-.08c0-.07-.08-.07-.08,0a.08.08,0,0,0,.08.08Zm.91,2.9h-.08l.08.08Zm.15-18.37h.08v-.08Zm3.28,28.89-.15-.38v.15Zm.46,1.83c0,.08,0,.15.15.15l-.08-.23Zm.91-47.87a.07.07,0,0,0,.08.07c.07-.07.15-.07.15-.15s0-.08-.15-.08S199.66,29.49,199.73,29.57Zm2.67.38.15.07V30Z" fill="#4d4d4d"/><path d="M240.59,33a1.62,1.62,0,0,1-.3.76,1.6,1.6,0,0,1-.61.31,25.6,25.6,0,0,1-3.51.07,5.31,5.31,0,0,0-1.52.08,1.54,1.54,0,0,0-1.45,1.37,1.61,1.61,0,0,0-.08.61v2.67a1,1,0,0,1,0,.68v.38c.08.77,0,1.61.08,2.37a20.15,20.15,0,0,0-.08,2.06,7.55,7.55,0,0,1,0,1.9c0,.92-.07,1.83,0,2.67a16.35,16.35,0,0,1,0,2c0,1.22,0,2.52.08,3.81l-.08.77V57a3.25,3.25,0,0,1-.07,1.22,2.41,2.41,0,0,0,0,.76,21,21,0,0,1,.07,3.81,5.46,5.46,0,0,0,0,1.07.27.27,0,0,0,.08.23c.08.38-.38.69-.15,1.07a2,2,0,0,1,.15,1.14v1.14c0,.46-.08.92-.08,1.45,0,.08-.07.16,0,.23a4.32,4.32,0,0,1,.08,1.45c-.08.38,0,.84-.08,1.3a3.28,3.28,0,0,0,0,.83,7.63,7.63,0,0,1,0,1.91,1.7,1.7,0,0,0,0,.84,1.05,1.05,0,0,1-.07.69c-.08.07,0,.15,0,.22s.07.23.15.39V77.9c-.08.15-.15.23-.23.23,0,.15.08.23.08.38a.59.59,0,0,1-.16.61,2,2,0,0,1-1.9.61.8.8,0,0,0-.61,0,2.35,2.35,0,0,1-1.22-.15c-.31-.16-.76-.23-.92-.69s-.3-.61-.15-1-.15-.76,0-1.07a10.68,10.68,0,0,1,0-1.6,5.15,5.15,0,0,1,0-1.52,37.75,37.75,0,0,1,0-4.12,17.7,17.7,0,0,1,0-2.06c0-.69-.08-1.3-.08-2,0-1.37-.07-2.82,0-4.19.08-1.15,0-2.29,0-3.36a2.82,2.82,0,0,1,.16-1.37V56.4a5.2,5.2,0,0,1-.16-1.9V46.26c.08-1.29,0-2.51,0-3.81,0-.61.08-1.22.08-1.83-.08-1.68-.08-3.28-.08-4.95a1.64,1.64,0,0,0-.38-1.07,1.51,1.51,0,0,0-1.14-.46c-.3.08-.61-.07-.91,0a1.47,1.47,0,0,1-1-.07,12.42,12.42,0,0,1-2.36.07,1.35,1.35,0,0,1-1.52-1.37v-.46a9.46,9.46,0,0,0,0-2.06,2.18,2.18,0,0,1,.45-1.06.65.65,0,0,1,.46-.23,1.41,1.41,0,0,1,.61-.08c.92.15,1.83-.08,2.74.15a20.59,20.59,0,0,1,2.06-.15c1.3,0,2.52,0,3.82.08h1.44a5.53,5.53,0,0,1,1.15,0c.84,0,1.75.07,2.59,0a14.88,14.88,0,0,1,2.67,0h.61a1.12,1.12,0,0,1,1.14.61.26.26,0,0,1,.08.23C240.52,30.86,240.67,31.93,240.59,33Zm-7.47,1.14-.07-.07-.08.07ZM239.91,30l-.08-.07v.15Z" fill="#afafaf"/><path d="M278.86,79.12c0,.23-.23.3-.38.38a1.22,1.22,0,0,1-.84.23,6.2,6.2,0,0,0-1.22,0,1.15,1.15,0,0,1-1.07-.31.29.29,0,0,0-.3-.15.44.44,0,0,1-.46-.46c-.07-.45-.3-.91-.38-1.37a6.57,6.57,0,0,0-.08-1.29c-.15-.46-.07-1-.22-1.45a3.3,3.3,0,0,1-.23-1.22,12.73,12.73,0,0,0-.31-2.44.51.51,0,0,1-.07-.31,1.52,1.52,0,0,0-.46-1.29l-.54-.69h.31c.15.08.23,0,.31-.08-.23,0-.39.08-.62.08s-.38-.08-.6-.08c-.23.23-.61,0-.92.16s-.53-.08-.84-.16-.53-.07-.76.16a4.83,4.83,0,0,1-1.07-.08,5.43,5.43,0,0,0-1.14,0,2.56,2.56,0,0,1-1.68-.23.61.61,0,0,0-.3-.15c0,.23,0,.38-.31.46a1.88,1.88,0,0,0-1.6.84,1.1,1.1,0,0,1-.61.38c-.08,0-.08.15,0,.15s.38.15.31.46V71a9,9,0,0,1-.39,2.44,1,1,0,0,0-.07.45c-.08.08-.23.08-.31.16v.07a.45.45,0,0,1,.31.08c-.15.15-.15.23-.31.23l-.07.3h.15a.28.28,0,0,1,.15.38,1.12,1.12,0,0,0-.15.84c0,.08-.15.16-.23.16s-.07,0-.07.07l-.08.23c0,.08.08.08.15.15s-.23.16-.15.31c.23.76.23.76.15,1.14a1.65,1.65,0,0,1-1.6,1.6.66.66,0,0,0,.08-.38l-.16-.08c0,.16.08.31.08.46-.15,0-.3.08-.46.08h-1.14a1.46,1.46,0,0,1-1.14-.31.57.57,0,0,1-.46-.61,2.53,2.53,0,0,1,.07-1.29c0-.23.08-.46.08-.76s.08-.54.08-.84.15-.38.23-.69a4.35,4.35,0,0,1,.22-.76c0-.23-.07-.46-.07-.69s.07-.38.07-.61c.08-.07.08-.23.08-.3.08-.54.08-1.07.15-1.6s.31-.92.38-1.38a2.82,2.82,0,0,1,.16-1.14c.07-.15-.08-.3,0-.46a15.62,15.62,0,0,1,.3-1.9c.08-.31.08-.69.15-1.07,0-.15.08-.23.23-.3s-.07-.23-.07-.31a5.06,5.06,0,0,1,.3-2.13v-.23c-.07-.84.31-1.6.31-2.44a2.5,2.5,0,0,1,.15-.76.59.59,0,0,0,.08-.69,13.63,13.63,0,0,1,.3-1.91,14.57,14.57,0,0,1,.31-1.83,1.6,1.6,0,0,0,.07-.61,1.52,1.52,0,0,1,.23-.76c.08,0,.08,0,.15.08s.16-.08.16-.15a.08.08,0,0,0-.08-.08c-.08-.08-.15-.08-.23-.15a8.35,8.35,0,0,1,.31-2.37c0-.15.07-.3.07-.45l.23-1.53c.08-.46.08-1,.15-1.45a12.06,12.06,0,0,1,.31-1.52,7.2,7.2,0,0,1,.15-1.3c.3-.38.15-.76.15-1.14s.08-.76.15-1.07l.46-3a30.9,30.9,0,0,1,.69-3.81c0-.23.08-.46.08-.69a7.68,7.68,0,0,1,.38-2.29c-.16-.45.22-.83.15-1.37-.08-.38.23-.76.15-1.14a.64.64,0,0,1,.15-.31c.23-.23.38-.45.69-.53.08-.08.23-.23.38-.23h.84c.46,0,.91.23,1.37.08s.76.15,1.15-.08a10.36,10.36,0,0,1,2.13.23.76.76,0,0,1,.61.53,1.68,1.68,0,0,1,.3.92,3.6,3.6,0,0,1,.16,1.29H272c.08.08.15.08.15.16,0,.68.38,1.29.31,2a6.18,6.18,0,0,0,.23,1.29c.07.39.07.84.15,1.22a9.46,9.46,0,0,1,.23,1.38c.15.53.07,1.06.23,1.6l.23,1.37a14.06,14.06,0,0,0,.22,1.68c.16.61.16,1.29.31,1.9a9.13,9.13,0,0,1,.3,2c.08.69.23,1.3.31,1.91a4.38,4.38,0,0,0,.15,1.07c.08.15,0,.3,0,.45a.47.47,0,0,0,0,.46.71.71,0,0,1,.23.54,3.21,3.21,0,0,1,.08.83,1.24,1.24,0,0,1,.15.46c-.08.38.07.69,0,1l.07.54c0,.07,0,.15-.07.15s.07,0,.07.08l.16.15c.07.84.38,1.6.38,2.36a1.39,1.39,0,0,0,.07.53,4.34,4.34,0,0,1,.16,1,6.43,6.43,0,0,0,.15,1.29,2.62,2.62,0,0,1,.08,1.3,1.05,1.05,0,0,0,.22.91,2.58,2.58,0,0,1,.23,1.07c0,.38.16.69.16,1.07a9,9,0,0,1,.15,1.45.83.83,0,0,1,.15.61c0,.15,0,.22-.3.22-.08,0-.08,0-.08.08a.43.43,0,0,0,.3.46c.16.07.31.15.31.38a3,3,0,0,0,.15,1.14,4.08,4.08,0,0,1-.07,1.91c-.23.15-.23.15,0,.3.07,0,.07.08.15.08a.76.76,0,0,1,.3.53,1.1,1.1,0,0,0,.16.69v.23a.85.85,0,0,0,0,.76c.15.23-.08.61.15.84a.61.61,0,0,1,.15.3c.08.84.31,1.6.31,2.37a2.13,2.13,0,0,0,.15,1c.07.23.07.53.15.76a1.82,1.82,0,0,1,.08.61C279.32,78.66,278.94,78.81,278.86,79.12Zm-21-3.74c-.08.08-.16.08-.16.16s0,.07.08.15a.28.28,0,0,0,.08-.15Zm.68-3.27h-.15c-.08,0-.08,0-.08.07a.08.08,0,0,0,.08.08l.08.07Zm2.21-19.06h.08v.07ZM272.15,62a17.94,17.94,0,0,0-.3-2.06,16.65,16.65,0,0,1-.15-2c0-.08-.08-.16-.08-.23-.15-.77-.31-1.53-.38-2.29-.08-1-.23-2-.38-3-.08-.16.07-.23.23-.38s.07-.08.07-.16c-.15-.07-.38-.07-.38-.38a13,13,0,0,1-.23-1.75,1.65,1.65,0,0,0-.15-.84,2,2,0,0,1-.08-.69,8.8,8.8,0,0,0-.15-1.44,23.49,23.49,0,0,0-.38-2.37,17.58,17.58,0,0,0-.23-1.9c-.08-.23-.3-.46-.15-.69s0-.46-.08-.69a2.38,2.38,0,0,0-.23-.68v-.15a2.18,2.18,0,0,0-.22-1.38,1.63,1.63,0,0,1,.07-.61.63.63,0,0,0-.07-.53,2.34,2.34,0,0,1-.23-.69,15.68,15.68,0,0,0-.23-1.9,2.56,2.56,0,0,0-.31-1.07l-.07-.07-.08.07c-.08.46-.23,1-.3,1.53a.8.8,0,0,1-.39.68c-.15.15,0,.23.08.31l.08.07c-.08.54-.08,1.15-.16,1.68l-.68,4.42c-.08.46-.15.92-.23,1.37a.69.69,0,0,0-.08.39c0,.3-.07.68-.07,1.06-.31.31-.16.69-.23,1s-.08.77-.08,1.15a11.21,11.21,0,0,1-.23,1.6c0,.07-.07.15-.07.23a1.58,1.58,0,0,1-.08.83,1,1,0,0,0-.08.46v.61a10.83,10.83,0,0,0-.22,1.68,1.23,1.23,0,0,1-.08.53c-.31.61-.15,1.22-.38,1.76a.62.62,0,0,0,0,.53.91.91,0,0,1-.38.84c.07.07.23.15.23.23a5,5,0,0,1-.23,1.52c0,.15-.08.23,0,.31s.07.3,0,.38c-.16.38,0,.76-.23,1.14-.15.08-.08.23-.08.31a.88.88,0,0,1,.08.61.55.55,0,0,0-.15.38c0,.3-.23.45-.38.61a.33.33,0,0,1,.38,0c.07.07.15.15.15.23a1,1,0,0,0,1,.53,3.63,3.63,0,0,1,.84.15l.07.08h.08a.56.56,0,0,1,.31-.15,5.1,5.1,0,0,1,1.06-.08,4.09,4.09,0,0,0,1,0h1.15a3.1,3.1,0,0,0,1.45.08c.07,0,.15-.08.3-.16A.87.87,0,0,0,272.15,62Zm-8.08-5.34c.08,0,.08,0,.08.08s.15.07.23.07,0-.15-.16-.15ZM267,32.39H267v-.08Zm3.66-.46h.08l-.08-.08Zm.46,31.33c0,.08.07.15.22.23ZM277,65.09A.07.07,0,0,0,277,65C276.88,65,276.88,65.09,277,65.09Z" fill="#afafaf"/><path d="M315.15,30a18.79,18.79,0,0,1-.38,2c-.23.61-.39,1.22-.61,1.83a5.13,5.13,0,0,0-.23,1.14,2.52,2.52,0,0,1-.31,1.07,1.06,1.06,0,0,0-.07.46,1.84,1.84,0,0,1-.38.84,1.64,1.64,0,0,1-.16,1.06c-.15.84-.53,1.68-.61,2.6l-.91,3.43a3.1,3.1,0,0,1-.31.53c0,.15-.07.3-.07.46a6.12,6.12,0,0,1-.31,1.6,21.85,21.85,0,0,0-.53,2.44c-.08.15-.08.3-.23.38a.83.83,0,0,0-.23,1,2.67,2.67,0,0,1-.15.61c-.08.38-.38.69-.23,1.07L309,53.73a1,1,0,0,1-.15.46,9.92,9.92,0,0,1-.61,2.44c0,.15-.08.38-.08.61l-.23,2.36a1.82,1.82,0,0,0-.07.61c.07,1.3-.08,2.67.07,4,0,.38-.3.61-.15.91a2.14,2.14,0,0,1,.08,1c0,1,.07,2,0,3a8.61,8.61,0,0,1,0,1.9c0,.84,0,1.68.07,2.44s-.07,1.68-.07,2.52c0,.61.07,1.22.07,1.83-.07.15-.07.3-.22.45h.07c0,.08.08.23.08.31s-.08.38-.15.46a1.59,1.59,0,0,1-1.07.76h-.23a.62.62,0,0,1-.38.07,8,8,0,0,0-1.91-.07c-.07-.08-.22-.08-.3-.15a1.36,1.36,0,0,1-1-1.6,4,4,0,0,0,0-.92c0-1.45,0-2.9-.08-4.35,0-.76.08-1.44.08-2.21,0-.45-.08-1-.08-1.52v-.23a23.93,23.93,0,0,0,0-3.28V61.2a23.26,23.26,0,0,0,.08-2.36l-.08-.53c-.23-.46-.08-.92-.23-1.38a4.81,4.81,0,0,1-.23-1.44.51.51,0,0,0-.07-.31,1.32,1.32,0,0,1-.46-.91c-.3-1-.46-2.06-.84-3.13a.46.46,0,0,0-.07-.3,6.73,6.73,0,0,0-.39-1.76,11.29,11.29,0,0,1-.45-1.67c-.31-1-.54-2.06-.84-3.13a15.31,15.31,0,0,0-.46-1.83c-.3-.84-.38-1.68-.69-2.52a3.64,3.64,0,0,0-.3-1.29,7.48,7.48,0,0,0-.23-1.22c-.15-.38-.23-.84-.38-1.22-.38-1-.53-2.06-.84-3.05a14.12,14.12,0,0,0-.46-1.75,3,3,0,0,1-.23-1.38,1.45,1.45,0,0,1,.16-.61.51.51,0,0,1,.61-.45A5.84,5.84,0,0,1,298,29a1.78,1.78,0,0,0,.61,0,.9.9,0,0,1,.77.15,3.27,3.27,0,0,1,.84.91c.07,0,.07.16.07.23.08.23-.07.46.08.69s.15.38.23.53a12,12,0,0,1,.38,1.6,4.53,4.53,0,0,0,.15.61,7.8,7.8,0,0,1,.38,1.91,6.18,6.18,0,0,1,.46,2.06,1.55,1.55,0,0,1,.3,1.14c.08.38.23.76.31,1.14a4.24,4.24,0,0,1,.23,1.3c.38,1,.53,2.06.84,3.05.07.46.23.84.3,1.3a.77.77,0,0,0,.31.38,3.61,3.61,0,0,0,.53.61h.08a2,2,0,0,1,.68-.08,1.18,1.18,0,0,0,1.07-.69,3.22,3.22,0,0,0,.23-.83,4.8,4.8,0,0,1,.38-1,3.62,3.62,0,0,0,.07-.39,2,2,0,0,1,.16-.91l.45-1.6a6,6,0,0,1,.31-1.68,3.63,3.63,0,0,1,.15-.84l.23-.68a2.09,2.09,0,0,1,.23-.92c.08-.23.08-.46.15-.68a9.1,9.1,0,0,1,.61-2.44c0-.92.46-1.76.54-2.75a4.59,4.59,0,0,1,.45-1.37c.08-.15.31-.31.46-.53a.67.67,0,0,1,.53-.23,9.36,9.36,0,0,1,1.53.07,2.56,2.56,0,0,0,.76-.07,1.22,1.22,0,0,1,1.14.38A2.3,2.3,0,0,1,315.15,30Zm-16.09,5.64c0-.08-.07-.08-.07.08C299.06,35.67,299.06,35.67,299.06,35.59Zm.08,1.07c-.08,0-.15.07-.15.23a.17.17,0,0,0,.15-.16C299.21,36.73,299.14,36.73,299.14,36.66Zm.91,3.12H300v.08ZM309.58,38a.9.9,0,0,0-.45.08l-.08.07c0,.08.15.15.23.15Zm.69,1.22-.08.07h.08Zm.68-6.79c0-.07-.07-.07-.07-.15,0,.08-.08.08-.08.15a.08.08,0,0,1,.08.08C310.88,32.46,310.88,32.46,311,32.46Zm2.52-2.13h-.15c.07,0,.07.08.07.08S313.47,30.41,313.47,30.33Z" fill="#afafaf"/><path d="M347.09,78.2a.87.87,0,0,1-.23.61,1.4,1.4,0,0,1-.23.38l-1.22.54c-.08,0-.08.07-.15.07-.92-.07-1.83,0-2.82-.07h-3.51a.53.53,0,0,1-.46,0l-6.17-.23-.46-.31a.51.51,0,0,1-.15-.3,3.43,3.43,0,0,1,0-1.53c.07-.15.15-.22.23-.22V77a1,1,0,0,1-.31-.76c0-.76-.07-1.52-.07-2.29s0-1.82.07-2.74v-.38c0-.15-.07-.31-.07-.46.07-1.52-.08-3,.07-4.57a10.68,10.68,0,0,0,0-1.6,18.85,18.85,0,0,1,.08-3.51V60a15.55,15.55,0,0,1-.08-3.27v-2.9a6.74,6.74,0,0,1,0-1.68,9.63,9.63,0,0,0,0-1.52,5,5,0,0,1,0-1.45c0-.15.15-.23.23-.38a.68.68,0,0,1-.23-.46,1.7,1.7,0,0,1,0-.84,2.51,2.51,0,0,0-.07-1.07c0-.38.22-.68.15-1.06a2.31,2.31,0,0,1-.08-1.22,6.21,6.21,0,0,1,.08-2.06,5,5,0,0,1,0-2.14c0-.15-.08-.3-.08-.45a10.84,10.84,0,0,1,0-2.67,4.39,4.39,0,0,1,.15-1.68c-.38-.53.08-1.06-.15-1.6,0-.15-.07-.3-.07-.46.07-1,.07-2,.07-2.89a1.55,1.55,0,0,1,.23-.84,1.17,1.17,0,0,1,.84-.46h.84a5.91,5.91,0,0,0,1.68,0,.69.69,0,0,1,.6.31,2.11,2.11,0,0,1,.62.53.91.91,0,0,1,.22.84l-.07.3a24,24,0,0,1,.15,3.28v6.25c0,.61-.08,1.15-.08,1.68v1.45a9.25,9.25,0,0,1,.08,1.45v1.44c-.08,1.07.08,2.06-.08,3.05-.07.08,0,.23,0,.31s.08.46,0,.61c-.07,1,.08,2,.08,2.9V57c-.08,1.22-.08,2.36-.08,3.51,0,.53-.07,1.07-.07,1.52a12.53,12.53,0,0,1,.15,1.6,12.43,12.43,0,0,0,0,2.44v.69a5.27,5.27,0,0,0,0,1.9V69c-.15,1.75,0,3.51,0,5.26l.08.53c.15,0,.3,0,.38.16a.55.55,0,0,0,.45.15,8.84,8.84,0,0,0,2,.07,14.2,14.2,0,0,1,2.44,0c.91,0,1.75-.07,2.66,0,.31-.15.69.08,1.07.08a1.09,1.09,0,0,1,.92.61A1.6,1.6,0,0,1,347,77,7.63,7.63,0,0,0,347.09,78.2ZM335.73,53.43c.07-.08.15-.08.15-.15l-.15-.16Zm.3,7.93v.15c.08,0,.08,0,.08-.15Zm.31,8.53v.31a.28.28,0,0,0,.08-.15C336.49,70,336.42,69.89,336.34,69.89Z" fill="#afafaf"/><path d="M381.7,55.71a3.22,3.22,0,0,1-.08.39,7.12,7.12,0,0,1,0,2.21v2.82a12.78,12.78,0,0,1,0,1.75c-.08.53.15,1.07.08,1.68s.07,1.07,0,1.67c-.08,1.22.07,2.37,0,3.59,0,.84-.08,1.6-.08,2.44a20.84,20.84,0,0,1-.61,2.06,2.44,2.44,0,0,1-.46,1.44,7.61,7.61,0,0,0-.68,1.3,3.39,3.39,0,0,0-.38.61c-.16.15-.31.38-.54.38a1.31,1.31,0,0,1-.23.38l-.45.46a.55.55,0,0,1-.38.3l-.23.23a2.14,2.14,0,0,1-.77.38H377a.08.08,0,0,0-.08.08,2.77,2.77,0,0,1-1.37.61,1.24,1.24,0,0,1-.46-.15c-.22-.15-.22-.15-.45.15l-.08.15a3.19,3.19,0,0,0-.84.16c-.15.15-.45.07-.68.07a12.2,12.2,0,0,0-1.6,0c-.31.08-.46-.23-.77-.23a3.45,3.45,0,0,1-.84-.07c-.53-.31-1.21-.38-1.82-.77a.29.29,0,0,0-.16-.07,4.77,4.77,0,0,1-.91-.76,6.38,6.38,0,0,0-.84-.69,1.11,1.11,0,0,1-.23-.3,8.6,8.6,0,0,1-1.14-2c-.16-.45-.54-.76-.54-1.29a11.15,11.15,0,0,0-.53-1.83c.08-.23,0-.54.23-.69l.08-.07c-.08,0-.08-.08-.16-.08s-.3-.15-.3-.31a11.18,11.18,0,0,1,.07-1.67c.08-.31-.15-.54-.07-.84a.58.58,0,0,1,.38-.46c.08-.08.08-.08,0-.15a.49.49,0,0,1-.38-.46.56.56,0,0,1,.3-.53.42.42,0,0,1-.23-.31v-.76c0-1.14-.07-2.21,0-3.35a11.77,11.77,0,0,0,0-1.68c-.07-.53.08-1.07,0-1.68s0-1.07-.07-1.52l.07-.54c0-.15.08-.23,0-.45a4.56,4.56,0,0,1,0-1.38c.08-.45-.07-.91,0-1.29-.15-.31.16-.61.08-.84a2.14,2.14,0,0,1-.08-1,3.36,3.36,0,0,1,0-.84,3.1,3.1,0,0,1-.07-.84,1.94,1.94,0,0,1,.15-.91c.08-.16,0-.31,0-.46a32.54,32.54,0,0,1,0-5.41c0-.16-.08-.31-.08-.46-.07-.46,0-.92-.07-1.45,0-.3.38-.69.15-1a1.75,1.75,0,0,1-.15-1.07V39.32a11,11,0,0,1,.15-2.21c.08-.22.23-.38.31-.61H364c-.07-.07-.23-.07-.23-.15a7.18,7.18,0,0,1,.92-2.44c.23-.61.61-1.22.91-1.83a4.61,4.61,0,0,1,1.15-1.22c.07-.15.22-.15.38-.07,0-.16,0-.23.07-.31a4.43,4.43,0,0,1,.54-.46,9.86,9.86,0,0,1,3.5-1.14h.61a5.76,5.76,0,0,0,1.6.08,2.66,2.66,0,0,1,1.07.07c.46.08.92.23,1.37.31l.61.23c.31.23.69.38,1.07.61.08.07.31.15.31.3a8.34,8.34,0,0,0,1.22,1.15,9.32,9.32,0,0,1,1.75,3,9.31,9.31,0,0,0,.46,1.38,14.3,14.3,0,0,1,.38,2.59,3.94,3.94,0,0,0,0,1.37,2,2,0,0,1,0,.92,5.36,5.36,0,0,0,0,1.6c0,.84-.08,1.75,0,2.59a14.74,14.74,0,0,1-.08,2.59,18.71,18.71,0,0,1,0,2.9,7,7,0,0,1,0,1.29c.08.46-.08.92.08,1.3C381.62,54,381.77,54.88,381.7,55.71Zm-4.81-5.64a.42.42,0,0,1-.3-.45c0-.84-.08-1.6,0-2.44a3.13,3.13,0,0,0,0-1.22V45c-.08-.91.15-1.75,0-2.67V38a11.09,11.09,0,0,0-.76-2.21,5.65,5.65,0,0,0-1.07-1.29c-.46-.38-1-.38-1.45-.69h-.23c-.38,0-.76.08-1.22.08a1.4,1.4,0,0,0-.76.23c-.23.22-.53.38-.76.6a.61.61,0,0,0-.46.39c-.3.45-.84.91-.84,1.52,0,.08-.07.15-.15.23-.15.53-.15,1.14-.3,1.68a7.93,7.93,0,0,1,.07,1.9c0,.84.08,1.68,0,2.52-.07.38,0,.68-.07,1.07a1.31,1.31,0,0,1-.08,1.06.68.68,0,0,0,.15.76c0,.08.08.16,0,.23a16,16,0,0,0,.08,1.83c-.08.61-.08,1.3-.15,1.91a5.51,5.51,0,0,1,0,1.9,3.36,3.36,0,0,1,.07,1.22,4,4,0,0,0,0,1.3,2,2,0,0,1,.08.69c-.08,1.37,0,2.74-.15,4.11v.61a10.06,10.06,0,0,0,.07,1.45c.08.54-.07,1.07,0,1.53a1.41,1.41,0,0,1-.15.83.85.85,0,0,1,.08.84c-.08.69.07,1.38,0,2.06a6.48,6.48,0,0,1,.07,2.06,10.11,10.11,0,0,1,0,2.13c0,.39-.15.69,0,1.07-.23.46.15.76.23,1.14a2.29,2.29,0,0,0,.38,1l.23.45a3.56,3.56,0,0,0,1,1.15,5.14,5.14,0,0,0,1.83.61,3.46,3.46,0,0,0,2.29-.54,8.7,8.7,0,0,0,.91-.84,4.25,4.25,0,0,0,.46-1.06c.15-.31.23-.61.38-.92,0-.23.15-.3.31-.45-.08.07-.16.15,0,.15v-.15a.42.42,0,0,1-.23-.39c.07-.22.23-.38.15-.61a1.94,1.94,0,0,1,0-.68v-1.6c.08-.54-.08-1.07,0-1.68V65.93a3.47,3.47,0,0,0,0-.91,3,3,0,0,1,.08-1.22.53.53,0,0,0,0-.46,1,1,0,0,1,0-.84v-.31a40.38,40.38,0,0,1-.08-4.26,3.78,3.78,0,0,0,0-1.3v-1.3a23.21,23.21,0,0,1,0-2.36,3.75,3.75,0,0,0,0-1.6,1.55,1.55,0,0,1,0-.61.35.35,0,0,1,.23-.38C377,50.23,377,50.15,376.89,50.07Zm-7.31-19.66a.07.07,0,0,0,.07.07.07.07,0,0,0,.08-.07.08.08,0,0,1-.08-.08A.07.07,0,0,1,369.58,30.41Zm11,43.91h.39c-.08,0-.16-.08-.23-.08s-.08-.08-.16-.08Z" fill="#afafaf"/><path d="M416.69,78.81c-.38.69-.54.84-1.3.92h-.61a7.88,7.88,0,0,0-1.37-.08,1.49,1.49,0,0,1-1.53-.91c-.07-.16,0-.23-.07-.38-.08-.38-.23-.77-.31-1.15,0-.23,0-.38.31-.45l-.08-.23a.61.61,0,0,1-.3-.69c0-.08-.08-.08-.08-.15a6.51,6.51,0,0,1-.23-1.15,8.17,8.17,0,0,0-.38-1.29,6.24,6.24,0,0,1-.07-1.14c-.08-.16.07-.23.22-.31l-.15-.23c-.07,0-.15-.07-.23-.15s-.07-.08-.07-.15c.07-.38-.23-.77-.23-1.15a17.78,17.78,0,0,1-.23-2.06l-.08-.3a8.25,8.25,0,0,1-.38-1.75c0-.16.15-.31.08-.46a13.61,13.61,0,0,1-.76-3.58c0-.16,0-.31-.08-.38a11,11,0,0,1-.46-2.22l-.23-1c0-.3-.15-.45-.38-.68a1.66,1.66,0,0,0-1.14-.61h-1.68a2,2,0,0,0-1.22.53,1.7,1.7,0,0,0-.38.84c.23.38,0,.76.08,1.14v.77c0,.15.07.38,0,.53a6.68,6.68,0,0,0-.08,1.22,5.86,5.86,0,0,1,.08,1.22.24.24,0,0,1,0,.3,10.21,10.21,0,0,0,0,2.21v3.74a1.23,1.23,0,0,1-.08.53c0,.38.08.84.08,1.3v2.13a1.54,1.54,0,0,1-.08.84c-.08.31.15.54.08.84l-.16.84c-.07,0-.07.08-.15.08v.45h.23a.52.52,0,0,1,.08.46,8.4,8.4,0,0,1-.08,1.45L403,79v.23h-.15a1.58,1.58,0,0,1-.61.38c-.31,0-.61.08-.92.08h-1.82c-.16-.08-.31-.08-.39-.23H399c-.15-.15-.46-.15-.53-.38a1.33,1.33,0,0,1-.23-.92,2.49,2.49,0,0,0,.07-.76.85.85,0,0,0,0-.76c0-.69-.07-1.3-.07-2a12.31,12.31,0,0,0-.08-1.68,5.18,5.18,0,0,0,.08-1.52,1.32,1.32,0,0,0,0-.92,1.23,1.23,0,0,1-.08-.53c.08-.92,0-1.83,0-2.75a3,3,0,0,0,0-.84c0-.45.23-.83.08-1.29a8.92,8.92,0,0,0-.08-1.37c.08-1,0-2.06.15-3.13a2.41,2.41,0,0,0,0-1.07,6.68,6.68,0,0,1-.07-1.22V57.24a5.9,5.9,0,0,1,.07-1.22,2,2,0,0,0,0-.69c-.07-.83-.07-1.6-.07-2.44a.73.73,0,0,1,.07-.68V52a2.9,2.9,0,0,1-.07-1.37v-1.3a1.08,1.08,0,0,1,.07-.46c.08-.07.08-.15,0-.3a1.32,1.32,0,0,1-.07-1.07,1.6,1.6,0,0,0,.07-.61,3.12,3.12,0,0,1,0-1.14.8.8,0,0,0,.08-.38c-.3-.46-.15-1-.15-1.53a4.68,4.68,0,0,0,0-1c-.08-.3.15-.53.07-.76s-.15-.61-.15-.84a4.12,4.12,0,0,1,.15-1,1,1,0,0,0-.07-.92c0-.76-.08-1.44-.08-2.21a4,4,0,0,0,.08-.91c-.08-.15,0-.31,0-.46a2.14,2.14,0,0,0,.07-1c-.07-.15,0-.3,0-.46a4.1,4.1,0,0,0,0-1,2.14,2.14,0,0,1,0-1.37,3.14,3.14,0,0,0-.07-.84,1.94,1.94,0,0,1,0-.68,1.57,1.57,0,0,1,.53-1.3.56.56,0,0,1,.31-.15,1.82,1.82,0,0,1,.61-.08c.91.08,1.83.08,2.82.08a17.82,17.82,0,0,0,2.06-.08H406a12.31,12.31,0,0,1,3.66.61,9.47,9.47,0,0,1,3,1.6c.3.23.38.69.76.84.23.53.84.69,1.07,1.14a2.54,2.54,0,0,0,.38.61c.23.54.53,1.07.76,1.68a3.52,3.52,0,0,1,.38,1.83.64.64,0,0,0,.15.31c0,.15.16.22.16.3a5.73,5.73,0,0,0,.23,1.68,10.8,10.8,0,0,0,.15,1.67c0,.61-.08,1.15-.08,1.68l.08.76a7,7,0,0,1-.15,2.14.66.66,0,0,0-.08.38,4.6,4.6,0,0,1-.23,1.75L416,48.93c-.08.23-.15.38-.23.61l-.68,1.75c-.16.31-.16.61-.38.84a6.64,6.64,0,0,1-1.15,1.3l-.46.38c-.22.3-.61.3-.68.69a4.08,4.08,0,0,0,0,1c0,.15.07.3.07.45,0,.61.31,1.15.31,1.76a13.94,13.94,0,0,0,.3,1.67,14.5,14.5,0,0,1,.46,2c0,.23.08.38.08.61a1.94,1.94,0,0,0,.15.91,14.84,14.84,0,0,1,.31,1.53,3.29,3.29,0,0,1,.22,1.44,1,1,0,0,0,.16.46,6,6,0,0,1,.3,1.68c0,.15.08.3.08.46a2.31,2.31,0,0,1,.15.68c0,.23-.08.46.08.69a2.25,2.25,0,0,1,.15,1.22c-.08.07,0,.23.07.3a2.8,2.8,0,0,1,.39,1,23.61,23.61,0,0,0,.61,3.43,3.82,3.82,0,0,1,.15,1.6,1.26,1.26,0,0,0,.23.69A.92.92,0,0,1,416.69,78.81ZM398.92,51.37h-.15c0,.08.08.15.15.23Zm0,15.17c-.07.08-.07.08-.07.15l.07.08Zm.23,12.88c.16-.15.31-.07.46-.15h-.46ZM403,70.2a.24.24,0,0,0,.15-.08c0-.07-.07-.07-.15-.07ZM411.73,42v-.3a14.7,14.7,0,0,0-.53-3.28,10.33,10.33,0,0,0-1.45-2.52,4.4,4.4,0,0,0-2.13-1.52,2.64,2.64,0,0,1-.69-.46c-.08.08-.15.16-.23.16-.84-.16-1.68-.08-2.51-.16a.24.24,0,0,0-.31.08,1.14,1.14,0,0,0-.46,1v2c0,.84-.07,1.6,0,2.36s-.07,1.61-.07,2.37a5.45,5.45,0,0,1,0,1.07,6,6,0,0,0,.07,1.22c0,.91-.07,1.75,0,2.66,0,.38-.07.77-.07,1.22v1.3c-.23.38.07.76,0,1.14a1.41,1.41,0,0,1-.08.61,1.5,1.5,0,0,0,.38,1.37c.08.16.23.16.38.23a8.43,8.43,0,0,0,3.13-.38,5.36,5.36,0,0,0,2.51-1.52,6.81,6.81,0,0,0,1.68-3.2,12.2,12.2,0,0,0,.31-1.53c.15-.53,0-1.07.22-1.52C411.81,43.52,412.11,42.76,411.73,42Zm1,36.75.16.07Zm.46-16.47c.08-.08.08-.08,0-.08Zm.08,16.85h-.08s.08,0,.08.07Zm.76-27.6v0ZM416,38V38h-.08C415.85,38,415.92,38,416,38Zm.15,4.42.16.15a.07.07,0,0,1,.07-.07c-.07-.16-.07-.31-.23-.23Z" fill="#afafaf"/><path d="M452.74,70.43c-.07.61-.22,1.22-.3,1.75,0,.15-.15.15-.31.15h.08c.15.23.23.46,0,.69-.08.08-.08.15-.15.15s.07.23.15.31a.37.37,0,0,1-.08.23c-.15.07-.3.15-.15.3a.78.78,0,0,1,.08.69,9.21,9.21,0,0,0-.53,1.37,3.5,3.5,0,0,1-.69,1.07,3.36,3.36,0,0,1-.54.53l-.3.53c0,.08,0,.16-.08.16-.53.3-.76.83-1.29,1.14a6.39,6.39,0,0,1-1,.53c-.31.08-.69,0-.92.31a.37.37,0,0,1-.23-.08c-.22-.07-.45-.07-.53.23a1.08,1.08,0,0,1-1.07.15l-.84.16c-.61,0-1.22.07-1.9.07a.91.91,0,0,1-.46-.07c-.3-.23-.69.07-1-.23a.88.88,0,0,0-.76-.16,2,2,0,0,1-1.37-.3,4.48,4.48,0,0,1-1.3-.76c-.31-.31-.84-.46-1.07-.84-.15-.15-.3-.23-.38-.38-.23-.31-.46-.61-.69-1a13,13,0,0,1-1.37-3.28l-.15-.84a1.5,1.5,0,0,1,0-.84c.08-.15,0-.23-.08-.3a1.58,1.58,0,0,1-.23-.84,4.08,4.08,0,0,0-.07-.92c.15-.15.15-.3,0-.53a.63.63,0,0,1,.23-.84c.07-.08.15-.15.07-.3a.42.42,0,0,1,.31-.46,3.94,3.94,0,0,1,1.83-.31,2.77,2.77,0,0,1,1.37-.07,1.46,1.46,0,0,1,1.07.84c.07.15.07.38.15.61a.34.34,0,0,1-.3.22.28.28,0,0,1-.23.08l.15.15a.45.45,0,0,1,.46.46,4.42,4.42,0,0,0,.3,1.75,2.2,2.2,0,0,1,.15.77c-.07.07,0,.22.08.3a1.53,1.53,0,0,1,.23.53,7.73,7.73,0,0,0,.91,1.53,4.34,4.34,0,0,0,.84.76,2.75,2.75,0,0,0,1.83.69,5.46,5.46,0,0,0,1.91-.15c.15-.08.38,0,.53,0s.23-.08.31-.23a2.21,2.21,0,0,1,.61-.61c.23-.16.23-.46.38-.61.3-.31.38-.77.68-1,0-.39.31-.77.23-1.15a12.3,12.3,0,0,0,.46-2.36,1,1,0,0,0-.08-.69c-.07-.38,0-.61.31-.76a.4.4,0,0,0,.3-.15h-.23a.36.36,0,0,1-.38-.38,6.1,6.1,0,0,0-.3-1.15,8.21,8.21,0,0,1-.31-1.37c0-.07,0-.23-.07-.23-.46-.45-.46-1.22-.84-1.75a10.51,10.51,0,0,1-.92-1.53,18.26,18.26,0,0,0-1-1.67A5.42,5.42,0,0,0,443.22,59l-.16-.23A20.55,20.55,0,0,0,441.84,57c-.45-.53-.76-1.14-1.14-1.68l-1.07-1.75a.76.76,0,0,1-.3-.38c-.31-.31-.31-.76-.69-1.14a7.85,7.85,0,0,1-.68-.92.14.14,0,0,1,0-.23v-.07a1.12,1.12,0,0,1-.54-.84c-.15-.23-.15-.61-.46-.77a12.07,12.07,0,0,1-1.29-2.82c-.08-.45-.46-.76-.46-1.22a20.12,20.12,0,0,1-.91-3.73c.07-.31-.16-.61-.16-.92a4.18,4.18,0,0,1,.08-1l.23-2.74a14.12,14.12,0,0,1,1-3.05c.08-.15.08-.23.15-.31.38-.38.46-.91.76-1.22l.69-.76a.28.28,0,0,0,.15.08c0-.15,0-.31.08-.38.53-.46,1.07-.84,1.68-1.3l.45-.23a14.73,14.73,0,0,1,1.91-.61A2.32,2.32,0,0,1,442,29a4.67,4.67,0,0,0,1,0c.3-.08.61.07.91-.08a7.68,7.68,0,0,1,5.26,1.83c.31.31.61.46.92.76a9.46,9.46,0,0,1,1.14,1.83,14.18,14.18,0,0,0,.61,1.6.08.08,0,0,1,.08.08,8.82,8.82,0,0,0,.45,1.91l.23,1.75a3.47,3.47,0,0,1,0,.91,2,2,0,0,1-.23.46,2.22,2.22,0,0,1-1.37.61c-.61.08-1.14.08-1.68.15a1.49,1.49,0,0,1-1.75-1.29,8.07,8.07,0,0,0-.15-1.45c-.08-.46-.23-.84-.31-1.3a1.66,1.66,0,0,0-.38-.84c-.07-.15-.23-.22-.23-.38a3.25,3.25,0,0,0-1.45-1.6,5.76,5.76,0,0,0-1.21-.53,1.49,1.49,0,0,0-.84,0,3.88,3.88,0,0,0-.92.23c-.15,0-.3-.08-.45-.08a1.51,1.51,0,0,1-.39.31,1.25,1.25,0,0,0-.38.3,1.31,1.31,0,0,1-.23.38,10.15,10.15,0,0,0-.76,1.22,9.11,9.11,0,0,0-.38,1.3.92.92,0,0,0-.08.46,6.35,6.35,0,0,0-.15,1.21,1.08,1.08,0,0,0-.07.46,10.06,10.06,0,0,0,.07,1.45,2.46,2.46,0,0,0,.23,1.3,8.11,8.11,0,0,0,.61,1.9c.23.69.61,1.22.84,1.83a17.08,17.08,0,0,0,1.68,2.82l2.05,3c.23.38.31.83.69,1.06.23.46.53.77.76,1.15a18.58,18.58,0,0,0,1.45,2.21,1.66,1.66,0,0,1,.61,1.14.24.24,0,0,0,.08.15,4.35,4.35,0,0,1,1.14,1.76l.46.68c.07.16.23.31.3.46a4.42,4.42,0,0,0,.69,1.37c.08.31-.08.38-.15.54.07,0,.15.07.23.07a7.29,7.29,0,0,1,1.21,2.75c-.22.23,0,.38.16.45s.15.46-.08.46-.23.15-.23.31-.07.22-.07.3h.22c.31.08.46.23.46.46a5.48,5.48,0,0,1,.08,2.51C452.67,69.67,452.52,70,452.74,70.43Z" fill="#4d4d4d"/><path d="M500.62,30.56c-.31.23-.15.53-.15.84l-.23,2.82a4,4,0,0,0-.31,1.9,18.7,18.7,0,0,0-.3,2.21c-.16,1-.31,2-.38,3.05-.08.61-.16,1.22-.31,1.91l-.3,2.59c-.16.92-.23,1.83-.46,2.75a3.47,3.47,0,0,0-.08.91l-.46,3.58a8.41,8.41,0,0,0-.22,1.3,7.88,7.88,0,0,0-.08,1.37,22.93,22.93,0,0,0-.46,3.05,1.71,1.71,0,0,1-.15.61,1.05,1.05,0,0,0-.15.84.15.15,0,0,1,0,.23c-.23.91-.15,1.9-.38,2.82a13.4,13.4,0,0,0-.23,2.51,2.52,2.52,0,0,1-.31,1.07,1.06,1.06,0,0,0-.07.46,1.63,1.63,0,0,1-.08.84,2.62,2.62,0,0,0-.15.84c0,.76-.08,1.52-.15,2.28s-.23,1.53-.31,2.21a21.29,21.29,0,0,0-.3,2.21,3.66,3.66,0,0,0-.16,1.3,1.08,1.08,0,0,1-.15.46c0,.15-.15.38-.15.53.15.92-.54,1.22-1.15,1.53l-.07.07c-.69-.15-1.37.08-2-.23-.16-.07-.23-.07-.31-.23-.15-.38-.53-.68-.61-1.14-.07-.07-.15-.23-.07-.3.15-.54-.23-.92-.23-1.45a2.76,2.76,0,0,0-.23-1.3c0-.53-.31-1.07-.23-1.6a2.93,2.93,0,0,0-.15-.76c-.08-.46-.23-.92-.31-1.37a8.92,8.92,0,0,0-.15-1.45,15.81,15.81,0,0,0-.38-1.76l-.46-2.74c-.08-.3,0-.61-.08-.91s-.22-.54-.22-.84a14.59,14.59,0,0,1-.38-2.59.57.57,0,0,0-.08-.39,23.09,23.09,0,0,1-.53-2.44,1.56,1.56,0,0,1,0-.61.9.9,0,0,0-.16-.61.28.28,0,0,1-.07-.22c.07-1-.38-1.91-.38-3a9.56,9.56,0,0,0-.23-1.37,6.67,6.67,0,0,1-.16-1.68c-.23-1-.3-2-.53-3a.14.14,0,0,0-.23,0c-.3.23-.3.31-.23.61a.69.69,0,0,1,.08.76,1.45,1.45,0,0,0-.15,1,4.35,4.35,0,0,1-.16,1.38c-.07.38-.22.68-.3,1.06a2.41,2.41,0,0,1,0,1.07c-.15.92-.23,1.91-.38,2.9a16.82,16.82,0,0,0-.38,2.13c-.08.54-.23,1.15-.31,1.76a6.36,6.36,0,0,0-.15,1.22,6,6,0,0,0-.31,1.14c.08.15-.15.23-.3.38a6.61,6.61,0,0,1-.23,2.74c-.07.31-.3.46-.23.77a2.68,2.68,0,0,1-.07.83,7,7,0,0,1-.23,1.3,3.65,3.65,0,0,1-.31,1.3c-.07.15,0,.3,0,.45a1.6,1.6,0,0,1-.07.61,3.08,3.08,0,0,0-.23,1.22c.07.31-.16.38-.31.54s-.15.07-.07.15a1.15,1.15,0,0,1,.07,1,17,17,0,0,0-.38,1.83c-.07.69-.23,1.3-.3,1.91a1.26,1.26,0,0,1-.31.53v.15a.57.57,0,0,1-.15.69,2.32,2.32,0,0,1-1.68.53c-.3-.07-.68,0-1-.07a.58.58,0,0,1-.38-.16,1.69,1.69,0,0,1-.76-1.37,3.78,3.78,0,0,0-.16-1.29,3.57,3.57,0,0,1-.07-.92.15.15,0,0,0,0-.23c-.31-.53-.15-1.22-.31-1.75s-.22-1.15-.3-1.68a6.06,6.06,0,0,1-.08-2.36c-.15-.23.16-.61-.15-.76a9.31,9.31,0,0,1-.38-2,7.33,7.33,0,0,0-.31-1.9,17.27,17.27,0,0,0-.38-2.75c-.15-.38.15-.76,0-1.06a4.11,4.11,0,0,1-.23-1A5.59,5.59,0,0,0,473,59.3a2.59,2.59,0,0,1,.08-1.07c-.38-.46-.46-.76-.15-1.14.07-.08.22-.08.22-.23l-.22-.15a.26.26,0,0,1-.23-.08,4.28,4.28,0,0,1-.23-1.45,6.83,6.83,0,0,0-.15-1.07c-.08-.3.07-.61-.16-.91a.53.53,0,0,1,0-.46c.08-.23.16-.46-.07-.61L472,51.06a12.24,12.24,0,0,1-.31-1.67,13.44,13.44,0,0,0-.15-1.68,3.8,3.8,0,0,1-.23-.91V46c0-.23-.08-.46-.08-.77a12.2,12.2,0,0,0-.3-1.67,7.92,7.92,0,0,1-.23-1.53c0-.23-.08-.53-.08-.84a18,18,0,0,1-.38-2.82,10,10,0,0,0-.23-1.6.29.29,0,0,1-.07-.23,5.1,5.1,0,0,0-.08-1.06c0-.38-.15-.69-.15-1.07a29.49,29.49,0,0,0-.54-3.58,2.52,2.52,0,0,1,.31-1.6c.15-.16.23-.23.38-.23a10.72,10.72,0,0,1,1.6-.08,3,3,0,0,0,.84,0,1,1,0,0,1,.76.31,1.74,1.74,0,0,1,.61,1.29,3.58,3.58,0,0,0,.08.92c.07.53.07,1,.15,1.45a3.62,3.62,0,0,1,.15,1,8.09,8.09,0,0,0,.16,1.29,6,6,0,0,1,.15,1.53c0,.53.15,1,.15,1.45a14.37,14.37,0,0,0,.23,1.82,22.19,22.19,0,0,1,.15,2.29,18.86,18.86,0,0,0,.31,1.91l.07.53c0,.31-.07.53-.07.76s.22.46.22.69a6.67,6.67,0,0,1,.08,1.3v.45a7.27,7.27,0,0,1,.31,2.52,1.71,1.71,0,0,0,.15.61c0,.15.07.38.07.61l-.07.76a1.26,1.26,0,0,1,.23.69c0,.23-.08.45.07.68a1,1,0,0,1,.08.46,5.86,5.86,0,0,0,.08,1.22,2.22,2.22,0,0,1,.07,1,.15.15,0,0,0,0,.23c.31.53.15,1.07.23,1.6a6.68,6.68,0,0,1,.08,1.22,6.28,6.28,0,0,0,.23,1.3,3.26,3.26,0,0,0,.07,1.22,15.93,15.93,0,0,1,.23,2.66,2,2,0,0,0,.15,1.15.62.62,0,0,1,0,.53,2,2,0,0,0,.08.69,2.11,2.11,0,0,1,.15,1,6.13,6.13,0,0,0,.23,2,.08.08,0,0,0,.08.08c.07.07.15.07.15-.08l.23-1.07c-.15-.38.07-.76.07-1.14s.31-.69.16-1.07c0-.3.15-.61.15-1a11.66,11.66,0,0,1,.3-1.52c0-.08.16-.16.23-.23s.08-.15,0-.15a.86.86,0,0,1-.23-.92,25.2,25.2,0,0,0,.46-3.43,1.24,1.24,0,0,1,.15-.46,2.22,2.22,0,0,0,.08-.76,1,1,0,0,1,.08-.46,14.21,14.21,0,0,0,.15-1.9,2.44,2.44,0,0,1,.15-.69c0-.15.08-.23.08-.38a3,3,0,0,1,.15-1.14c-.15-.38.08-.77.08-1.07.07-1.07.3-2.14.38-3.2.07-.84.23-1.6.3-2.44a.94.94,0,0,1,.08-.46,7.17,7.17,0,0,1,.23-1.83,6,6,0,0,1,.3-1.14v-.46a1.92,1.92,0,0,1,.08-1.45,18.83,18.83,0,0,1,.15-1.9c.08-.92.23-1.91.38-2.82a2.28,2.28,0,0,0,.08-.77v-.45a8.31,8.31,0,0,0,.23-1.91,15.78,15.78,0,0,1,.3-1.91,4.74,4.74,0,0,0,.08-1.06,2.55,2.55,0,0,1,.68-1.53.8.8,0,0,1,.54-.3c.3,0,.61-.08.91-.08a1.75,1.75,0,0,1,1.38.76c.07.08.07.16.15.31a10.38,10.38,0,0,1,.23,2.13c0,.61.23,1.22.23,1.83a9.83,9.83,0,0,1,.22,2.14.28.28,0,0,0,.08.23,2,2,0,0,1,.15.68c.08,1.22.23,2.44.38,3.74.08.3-.07.61.08.91s0,.61.08,1c.22.92.22,1.91.38,2.82a18.69,18.69,0,0,1,.3,1.91l.08.53A1.49,1.49,0,0,0,489,49c.07.07.07.22.07.38.08.38.08.84.15,1.29v.61a2,2,0,0,0,.08.69,7.2,7.2,0,0,1,.15,1.3l.23,1.22a7.79,7.79,0,0,1,.15,1.9.94.94,0,0,0,.08.46,1.66,1.66,0,0,1,.15,1.07,9.54,9.54,0,0,0,.23,2,4.07,4.07,0,0,1,.15,1.68,1.71,1.71,0,0,1-.15.61c0,.08,0,.08.08.08a1.17,1.17,0,0,1,.22.61,2,2,0,0,0,.08.68c.23.92.15,1.83.46,2.75.08.3-.15.68,0,1.06a4.38,4.38,0,0,1,.15,1.07c0,.23.15.46,0,.69a1.07,1.07,0,0,0,.08.68,2.43,2.43,0,0,1,.23,1,.29.29,0,0,0,.07.15.17.17,0,0,0,.16-.15,2,2,0,0,0,.15-.61c-.08-.92.23-1.91.23-2.83-.08-.38.22-.68.15-1.06a2.21,2.21,0,0,1,.07-1,1.39,1.39,0,0,1,.16-.54,1.79,1.79,0,0,0,0-.61,10.55,10.55,0,0,1,.07-1.52,33.53,33.53,0,0,0,.46-4,2.88,2.88,0,0,1,.31-1.37c.15-.3-.16-.61,0-1a1.89,1.89,0,0,0-.08-.91,10.55,10.55,0,0,0,.23-1.3l.46-4a2.61,2.61,0,0,0,.07-1.3c-.07-.23.08-.46.15-.76a4.52,4.52,0,0,0,.08-1.07c0-.38.15-.69.15-1.07a1.23,1.23,0,0,0,.08-.53,17,17,0,0,1,.3-2.82l.23-1.91v-.61a3.69,3.69,0,0,0,.23-1.6.36.36,0,0,1,0-.38,1.32,1.32,0,0,0,.15-1.07c0-.38.23-.68.23-1.06a3.37,3.37,0,0,1,0-.84,20.6,20.6,0,0,1,.23-2.06A2.94,2.94,0,0,0,496,32c0-.38.15-.77.15-1.15,0-.53.46-1,.61-1.52a1.17,1.17,0,0,1,.84-.46h2.13a.67.67,0,0,1,.61.38c.08.15.23.23.31.38A1,1,0,0,1,500.62,30.56ZM490.25,62.27l.08.08Z" fill="#4d4d4d"/><path d="M523.11,41.76a15.2,15.2,0,0,0,0,1.91c.07.69-.08,1.3,0,2,.07.92,0,1.91,0,2.9a1.89,1.89,0,0,1-.08.91.11.11,0,0,0,0,.16,2.27,2.27,0,0,1-.08,1.6,8.14,8.14,0,0,1,.16,1.9,2.07,2.07,0,0,1,.07.61,9.06,9.06,0,0,0,0,2.44c0,.54-.07,1.07-.07,1.68a6.29,6.29,0,0,1,0,1.68,2.94,2.94,0,0,0,0,.84c0,.15.07.38,0,.53,0,.38-.08.76-.08,1.07a5.47,5.47,0,0,1,.08,1.14,3.36,3.36,0,0,1,0,.84,4.84,4.84,0,0,0,0,1.52v1.22a9.47,9.47,0,0,0,.07,2.06,2.32,2.32,0,0,1-.07.69c-.08,1,.07,1.9,0,2.82a11.6,11.6,0,0,1-.08,2.28c0,.08-.08.23,0,.31.23.38,0,.76-.08,1.07,0,.07-.07.15-.15.23v.38c.08.07.08.07.15.07.08.16.23.23.16.46a10.13,10.13,0,0,1-.08,1.52.66.66,0,0,1-.23.46,1.42,1.42,0,0,1-.61.54,2.93,2.93,0,0,1-.84.15h-1.52a2,2,0,0,1-1.3-.31c-.15-.15-.38-.23-.38-.45s-.23-.39-.15-.69a1,1,0,0,1,.08-.46c0-.23.07-.46.07-.68s-.07-.46-.07-.77S518,75.46,518,75c0-.61-.08-1.22-.08-1.83.08-.38,0-.68.08-1.06s-.08-.69.08-1c.07,0,.07-.15,0-.22a2.82,2.82,0,0,1-.08-1.38c0-.76-.08-1.45-.08-2.21v-.84c0-.45.23-.83.08-1.29s.15-.84,0-1.22a13.78,13.78,0,0,1,.08-3.13,3.12,3.12,0,0,0,0-1.14,4,4,0,0,1-.08-1.37,7.06,7.06,0,0,0,0-1.3c0-.38.08-.76.08-1.22a5.44,5.44,0,0,0,0-1.07,3.51,3.51,0,0,1-.08-.91,4.09,4.09,0,0,1,.08-1.68v-.38a.49.49,0,0,1-.08-.46c0-.38-.08-.76-.08-1.06a2,2,0,0,0,.08-1l.08-.3c.07-.15.07-.23,0-.3a1.32,1.32,0,0,1-.08-1.07,3,3,0,0,0,.08-.84,1.79,1.79,0,0,1,0-.92.7.7,0,0,0,0-.53,2.76,2.76,0,0,1-.08-1.14,2.42,2.42,0,0,0,0-1.07,1.53,1.53,0,0,1,.08-.84V42a3.06,3.06,0,0,1,0-1.67,1,1,0,0,0-.08-.92,7.74,7.74,0,0,1,.08-2.67V36.5c-.23-.3-.08-.61,0-.91a1.06,1.06,0,0,0,.07-.46c0-.15-.15-.3-.07-.46A4.35,4.35,0,0,0,518,33a1,1,0,0,1,0-.69,4.4,4.4,0,0,0,0-1.45,2.21,2.21,0,0,1,.3-1.52.92.92,0,0,1,.77-.46h.76a7.55,7.55,0,0,0,1.9,0A.45.45,0,0,1,522,29c.38.38.84.61,1,1.06.08.16.15.39.08.46-.16.31,0,.54,0,.76-.08,2,.07,3.89.07,5.8-.07,1.07,0,2.13,0,3.2C523.18,40.7,523.11,41.23,523.11,41.76Zm-3.66,37.43a.25.25,0,0,1,.07-.15h-.45c.07.08.07.15.15.15Zm3.35-9.07c.08-.07.08-.07.08-.15h-.08Z" fill="#4d4d4d"/><path d="M540.33,73.93v-.61a15.1,15.1,0,0,1,.08-1.9,3,3,0,0,0-.08-.84v-.46c.08-1,0-2,0-2.89V67a21.06,21.06,0,0,0,0-3.89,12.51,12.51,0,0,1,.16-2.44,3.51,3.51,0,0,0-.08-.91,3.13,3.13,0,0,1,0-1.22c0-.92,0-1.76.08-2.67,0-.61-.08-1.3-.08-1.91a7,7,0,0,1,0-1.83c.08-.38-.08-.76,0-1.22V49.46a6.93,6.93,0,0,0,0-1.29.8.8,0,0,1,0-.61,4.77,4.77,0,0,0,0-1.07,5.07,5.07,0,0,0,.08-1.07,5.72,5.72,0,0,1-.08-1.67,4.93,4.93,0,0,1,.08-1.53c0-.15-.08-.23-.08-.38s-.08-.46-.08-.69a13.44,13.44,0,0,0,0-3,7.1,7.1,0,0,1,.08-1.3,4.2,4.2,0,0,1,.15-1.68,1.05,1.05,0,0,1-.15-.84c.15-.22,0-.53,0-.76s-.08-.53-.08-.76a24.06,24.06,0,0,0,.08-2.44,1.38,1.38,0,0,1,.23-.92.87.87,0,0,1,.91-.45A8.76,8.76,0,0,1,543,29c.08,0,.15.07.23.07A20.19,20.19,0,0,1,547,29a15.09,15.09,0,0,1,3.73.07A6.71,6.71,0,0,1,552,29a11.35,11.35,0,0,1,1.75,0,2.88,2.88,0,0,0,1.37,0,1,1,0,0,1,.92.53,1,1,0,0,1,.23.76,8.87,8.87,0,0,0,0,2.06,5,5,0,0,1-.16,1.07,1,1,0,0,1-1,.76,5.84,5.84,0,0,1-2.28-.07c-.16,0-.31.07-.46.07a15.79,15.79,0,0,1-2.75,0,.57.57,0,0,1-.3-.15,3.62,3.62,0,0,1-1.3.23,4.26,4.26,0,0,0-1.67.15c-.39.08-.61.23-.69.61a3,3,0,0,0-.15.84v5.94a5.12,5.12,0,0,0-.08,1.53,11.75,11.75,0,0,1,.08,1.68v1.6c0,.91,0,1.83-.08,2.74-.15.46.08.76.23,1.14.08.08.15.23.23.23a2.66,2.66,0,0,0,2.13.38c.08,0,.31-.07.46-.07a4.08,4.08,0,0,1,.92.07,4.68,4.68,0,0,0,1.06,0c.38,0,.69.16,1,0l.08.08a1.22,1.22,0,0,1,1.14,1.07,19.41,19.41,0,0,1,0,3,1,1,0,0,1-.15.45.28.28,0,0,1-.38.16v.07a1.4,1.4,0,0,1-1.3.54c-.53-.08-1.14.15-1.75-.16a3.43,3.43,0,0,1-.38.08,12.24,12.24,0,0,1-1.75.08c-.23,0-.38-.08-.61,0a2.12,2.12,0,0,0-.84.84c0,.15-.08.22-.08.38v2.59a4.4,4.4,0,0,1,0,1.45c-.07.15,0,.3,0,.45a8.28,8.28,0,0,1,0,2v.23c.08,1.37,0,2.74.08,4v.38c-.15,1.52,0,3,0,4.57,0,.23-.08.38-.08.53v3.21a10.55,10.55,0,0,1-.07,1.52,1.08,1.08,0,0,1-.77.92,2.85,2.85,0,0,1-.76.15,8.61,8.61,0,0,1-1.9,0,1.1,1.1,0,0,1-.54-.08c-.61-.3-.91-.46-1-1v-.3Zm3.21,5.26.07.08h.08v-.08Z" fill="#4d4d4d"/><path d="M592.55,33a1.62,1.62,0,0,1-.3.76,1.6,1.6,0,0,1-.61.31,25.6,25.6,0,0,1-3.51.07,5.31,5.31,0,0,0-1.52.08,1.53,1.53,0,0,0-1.45,1.37,1.61,1.61,0,0,0-.08.61v2.67a1,1,0,0,1,0,.68v.38c.08.77,0,1.61.08,2.37a17.65,17.65,0,0,0-.08,2.06,7.55,7.55,0,0,1,0,1.9c0,.92-.07,1.83,0,2.67a16.35,16.35,0,0,1,0,2c0,1.22,0,2.52.08,3.81l-.08.77V57a3.25,3.25,0,0,1-.07,1.22,2.41,2.41,0,0,0,0,.76,21,21,0,0,1,.07,3.81,5.46,5.46,0,0,0,0,1.07.27.27,0,0,0,.08.23c.07.38-.38.69-.15,1.07a2.06,2.06,0,0,1,.15,1.14v1.14c0,.46-.08.92-.08,1.45,0,.08-.07.16,0,.23a4.6,4.6,0,0,1,.08,1.45c-.08.38,0,.84-.08,1.3a3.28,3.28,0,0,0,0,.83,7.63,7.63,0,0,1,0,1.91,1.7,1.7,0,0,0,0,.84,1.05,1.05,0,0,1-.07.69c-.08.07,0,.15,0,.22s.07.23.15.39V77.9c-.08.15-.15.23-.23.23,0,.15.08.23.08.38a.59.59,0,0,1-.16.61,2,2,0,0,1-1.9.61.8.8,0,0,0-.61,0,2.35,2.35,0,0,1-1.22-.15c-.31-.16-.76-.23-.92-.69s-.3-.61-.15-1-.15-.76,0-1.07a10.68,10.68,0,0,1,0-1.6,5.15,5.15,0,0,1,0-1.52,37.75,37.75,0,0,1,0-4.12,17.7,17.7,0,0,1,0-2.06c0-.69-.08-1.3-.08-2,0-1.37-.07-2.82,0-4.19.08-1.15,0-2.29,0-3.36a2.82,2.82,0,0,1,.16-1.37V56.4a5.2,5.2,0,0,1-.16-1.9V46.26c.08-1.29,0-2.51,0-3.81,0-.61.08-1.22.08-1.83-.08-1.68-.08-3.28-.08-4.95a1.64,1.64,0,0,0-.38-1.07,1.51,1.51,0,0,0-1.14-.46c-.31.08-.61-.07-.91,0a1.47,1.47,0,0,1-1-.07,12.42,12.42,0,0,1-2.36.07,1.35,1.35,0,0,1-1.52-1.37v-.46a9.46,9.46,0,0,0,0-2.06,2.18,2.18,0,0,1,.45-1.06.65.65,0,0,1,.46-.23,1.41,1.41,0,0,1,.61-.08c.92.15,1.83-.08,2.74.15a20.59,20.59,0,0,1,2.06-.15c1.3,0,2.52,0,3.81.08h1.45a5.53,5.53,0,0,1,1.15,0c.83,0,1.75.07,2.59,0a14.88,14.88,0,0,1,2.67,0h.61a1.12,1.12,0,0,1,1.14.61.26.26,0,0,1,.08.23C592.48,30.86,592.63,31.93,592.55,33Zm-7.47,1.14-.07-.07-.08.07ZM591.87,30l-.08-.07v.15Z" fill="#4d4d4d"/></svg>