<svg xmlns="http://www.w3.org/2000/svg" viewBox="0 0 92 78"><title>share-icon</title><path d="M73,69.49v5.05C73,76.77,71.13,78,68.9,78H3.63C1.4,78,0,76.77,0,74.54V25.09c0-2.24,1.4-4.2,3.63-4.2H15.35a4,4,0,1,1,0,8H8V70H65v-.49a4,4,0,1,1,8,0ZM90.84,32.17,66,57.46a4.08,4.08,0,0,1-7-2.84V43.69c-8-.23-27.24.57-34.17,12.91a4,4,0,0,1-3.5,2.07,4.37,4.37,0,0,1-1-.13,4.05,4.05,0,0,1-3-3.91c0-.65.05-16.06,11.56-27.64C36.2,19.63,46,15.55,59,14.85V4.05A4.06,4.06,0,0,1,66,1.21L90.84,26.49A4.06,4.06,0,0,1,90.84,32.17Zm-8.67-2.84L67,13.92v4.87a4,4,0,0,1-4,4.05c-12.39,0-21.94,3.31-28.44,9.86a30.56,30.56,0,0,0-6.34,9.46c9.41-5.61,21.28-6.61,28.59-6.61a64.93,64.93,0,0,1,6.63.3,4,4,0,0,1,3.53,4v4.87Z"/></svg>